<svg xmlns="http://www.w3.org/2000/svg" width="20.48" height="20.48" fill-rule="evenodd" clip-rule="evenodd" image-rendering="optimizeQuality" shape-rendering="geometricPrecision" text-rendering="geometricPrecision" viewBox="0 0 213.33 213.33" id="sparkle">
  <path d="M149.01 58.4c-4.72 36.83-20.34 60.09-55.8 66.22-.8.14-1.37.82-1.37 1.63 0 .81.57 1.49 1.37 1.63 35.45 6.13 51.07 29.39 55.8 66.22.11.83.8 1.44 1.64 1.44.84 0 1.53-.61 1.64-1.44 4.72-36.83 20.35-60.09 55.8-66.22.8-.14 1.37-.81 1.37-1.63 0-.81-.57-1.49-1.37-1.63-35.45-6.13-51.07-29.39-55.8-66.22-.11-.83-.8-1.44-1.64-1.44-.83 0-1.53.61-1.64 1.44zM39.23 128.6c-3.56 21.57-13.41 35.52-34.06 40.06-.77.17-1.3.83-1.3 1.61 0 .78.53 1.44 1.3 1.61 20.65 4.54 30.5 18.49 34.06 40.06.13.81.82 1.39 1.63 1.39.81 0 1.5-.58 1.63-1.39 3.56-21.57 13.41-35.52 34.06-40.06.76-.17 1.3-.83 1.3-1.61 0-.79-.53-1.44-1.3-1.61-20.65-4.54-30.5-18.48-34.06-40.06-.13-.8-.81-1.38-1.63-1.38-.82 0-1.5.58-1.63 1.38zM74.11 1.38C70.55 22.95 60.7 36.91 40.05 41.44c-.77.17-1.3.83-1.3 1.61 0 .78.53 1.44 1.3 1.61 20.65 4.53 30.5 18.48 34.06 40.06.13.8.81 1.38 1.63 1.38.81 0 1.5-.58 1.63-1.38 3.56-21.57 13.41-35.53 34.06-40.06.76-.17 1.3-.83 1.3-1.61 0-.79-.53-1.44-1.3-1.61-20.65-4.54-30.5-18.48-34.06-40.06C77.24.58 76.56 0 75.74 0c-.81 0-1.5.58-1.63 1.38z"></path>
</svg>
