<svg xmlns="http://www.w3.org/2000/svg" viewBox="0 0 24 24" id="copy">
  <path d="m17,3.25h-7.92c-1.52,0-2.75,1.23-2.75,2.75v.25h-.33c-1.52,0-2.75,1.23-2.75,2.75v9c0,1.52,1.23,2.75,2.75,2.75h9c1.25,0,2.3-.85,2.63-2h.37c1.52,0,2.75-1.23,2.75-2.75V7c0-2.07-1.68-3.75-3.75-3.75Zm-2,16H6c-.69,0-1.25-.56-1.25-1.25v-9c0-.69.56-1.25,1.25-1.25h9c.69,0,1.25.56,1.25,1.25v9c0,.69-.56,1.25-1.25,1.25Zm4.25-3.25c0,.69-.56,1.25-1.25,1.25h-.25v-8.25c0-1.52-1.23-2.75-2.75-2.75h-7.17v-.25c0-.69.56-1.25,1.25-1.25h7.92c1.24,0,2.25,1.01,2.25,2.25v9Z"></path>
</svg>
