<svg xmlns="http://www.w3.org/2000/svg" width="128" height="128" id="earth">
  <circle cx="64" cy="64" r="46.62" fill="#43bcff"></circle>
  <path fill="#8fd4ff" d="M101.46 43.45a56.11 56.11 0 0 0-.57-7.94A46.62 46.62 0 1 0 31 96.94a55.54 55.54 0 0 0 70.45-53.49Z"></path>
  <path fill="#17a984" d="M80.09 21.85c0 .93-1.63 1.12-1.63 2s-1.63 3.36-1.63 3.95 3.26 4.15 3 5-2.37 1.46-2.22 3.62.74 5.12.74 5.42-5.78 7.72-5.78 8.75 1.19 2 1.34 3.09-.6 4.11 0 4.88 5.77 8.23 8.59 8.28 9.19-3.07 10.07-3.07.89 4.53 1.63 5.82 2.52 4.26 2.23 5.67-3.11 6.41-2.82 8.06 1.19 4.9 1.19 5.64-3.56 4.72-2.23 7.17c.52.95 3.73-.47 7.48-2.57a46.62 46.62 0 0 0-18.4-72.71c-.92.37-1.56.73-1.56 1zm-58.38 27.6c.15 2.52 2.07 4.67 2.15 5.41s1.78 2.72 3.2 4.07a.72.72 0 0 0 0 .25c.15 1.23-1.63 3.66-1.63 5.63s.45 10 2.52 12.94 4 4.42 4.89 5.62 3.26 8.46 4.89 11.12 4.2 3.87 5.38 3.28 3.22-3.13 3.22-4.17.44-6.52 2.37-6.81 5.33-2 5.78-3.42 0-3.29 0-4.38 4-3.27 3.09-4.13c-.43-.42-2.46-4.11-4.8-4.52s-5.38.23-6.59-.7c-2.37-1.82-1-3.45-2.22-4.41s-4.45-5-6.08-5.21-6.2-4.42-7.41-3.76a16 16 0 0 0-1.91 1.1L26.3 55.6s-1.18-4.47-.82-5.26a5 5 0 0 1 3.22-2.7c.85-.18 2-.63 1.77-.74-1-.5-6-.16-6-.88a13.82 13.82 0 0 1 .48-4.2c1.4-2 5-2.46 5.65-2.46s1.19 3.89 1.78 4a2.77 2.77 0 0 0 1.4-.18s0-5.25.42-5.7 1.05-.36 1.71-.88 6.6-5.26 7.56-5.33 3.56-.15 4.52-.67 3.21-4.04 3.5-4.6-1.33-4-2.44-3.71-5.11 1.34-5.48 1a7.4 7.4 0 0 1-.76-.89 46.77 46.77 0 0 0-20.25 20.26 41.09 41.09 0 0 0-.85 6.79z"></path>
  <path fill="#009573" d="M100.89 35.51a56.11 56.11 0 0 1 .57 7.94 55.22 55.22 0 0 1-6.92 26.85c.84 1.47 2.1 3.81 1.85 5-.3 1.4-3.11 6.41-2.82 8.06s1.19 4.9 1.19 5.64-3.56 4.72-2.23 7.17c.52.95 3.73-.47 7.48-2.57a46.6 46.6 0 0 0 .88-58.1Z"></path>
  <path fill="#23c190" d="M48.67 86.79c1.93-.3 5.34-2 5.78-3.42s0-3.29 0-4.38a1.13 1.13 0 0 1 .3-.62c-1.73.74-3.49 1.35-3.86 1-.79-.75-1.9-4.67-3.82-4.89s-4.81-1.33-5.92-1.18-3.62 2.81-2.36 4.28 2.51 2 2.22 3.07a13.91 13.91 0 0 0 .22 4.62c.22 1.11 2.88 5.4 2.73 6.36s-1.62 3.18.08 4.14a2.41 2.41 0 0 0 1.05.15 5 5 0 0 0 1.21-2.32c0-1.03.45-6.52 2.37-6.81zm-12-5.31c-.37-1.26-3.84-.87-4.29-1.83a17.36 17.36 0 0 1-1.21-4.06c-.14-1-.74-1-1.84-1.63-.67-.4-1.52.27-2.58 1.08a9.24 9.24 0 0 0 1.18 2.71c2.08 3 4 4.42 4.89 5.62a27.38 27.38 0 0 1 1.8 4.09c.45-1.46 2.38-4.97 2.05-5.98z"></path>
  <path fill="#17a984" d="M34.84 45.3c.63-.4 1.21-1 2.24-.22s2.54 3 3 3.24a10.47 10.47 0 0 1 2 .64c.51.32.8 1 .34 1.06-1.06 0-4.24.09-4.62-.53s-1.5-2.07-2.71-2.11-.93-1.66-.25-2.08zm7.01 6.07a3.92 3.92 0 0 1 2.72.68c.27.23 1.14.65 1.46 1.21.44.77.24 1.65-.34 1.24-1-.7-2.41-.71-3.5-1.16a1.18 1.18 0 0 1-.34-1.97z"></path>
  <path fill="#23c190" d="M88.76 54.62c4.44-.93-1.18-6.61.74-8.38s-3.25-8.13-5.62-9.61 1.34-5.32 0-6.65c-.62-.63-2.35.47-4.28 2.07a1.21 1.21 0 0 1 .19.8c-.29.89-2.37 1.46-2.22 3.62s.74 5.12.74 5.42-5.78 7.72-5.78 8.75 1.19 2 1.34 3.09-.6 4.11 0 4.88A49.39 49.39 0 0 0 79.25 65c3.21-2.69 5.75-9.58 9.51-10.38Z"></path>
</svg>
