<svg xmlns="http://www.w3.org/2000/svg" xml:space="preserve" id="handshake" x="0" y="0" style="enable-background:new 0 0 100 100" version="1.1" viewBox="0 0 100 100">
  <g>
    <g>
      <path d="M71.37,58.44c-0.31,1.46-1.81,2.51-2.91,3.11c0.29,0.65,0.27,1.22,0.16,1.65c-0.35,1.38-1.86,2.3-3.02,2.8
			c0.25,0.61,0.22,1.14,0.12,1.55c-0.39,1.55-2.25,2.51-3.41,2.98c-0.01,0.47-0.18,0.94-0.48,1.35c-1.11,1.51-4.29,2.36-8.33,2.36
			c-1.21,0-2.5-0.08-3.83-0.24c-0.27-0.03-0.53-0.06-0.8-0.1c-0.48-0.07-0.84-0.46-0.88-0.93l-14.74-6.57
			c-0.04,0.07-0.08,0.13-0.13,0.2c-0.2,0.25-0.49,0.37-0.79,0.37c-0.23,0-0.44-0.07-0.63-0.22c-2.88-2.3-5.23-5.04-7-8.15
			c-0.28-0.48-0.1-1.1,0.38-1.38c0.24-0.13,0.49-0.16,0.73-0.1l4.03-15.09c-0.05-0.02-0.1-0.05-0.15-0.07
			c-0.5-0.25-0.7-0.86-0.45-1.36c0.26-0.49,0.85-0.69,1.35-0.45c0.88,0.34,6.43,0.28,9.74,0.23c2.2-0.03,4.09-0.05,5.11,0
			c0.56,0.03,0.99,0.5,0.97,1.05c-0.01,0.12-0.03,0.22-0.07,0.32L69.13,55.5c0.39-0.25,0.92-0.2,1.26,0.14
			c0.42,0.42,0.68,0.84,0.84,1.22C71.47,57.47,71.46,58.02,71.37,58.44z" style="fill-rule:evenodd;clip-rule:evenodd;fill:#fada98"></path>
      <path d="M50.59 74.08c-.56-.05-1.14-.12-1.72-.2-.48-.07-.83-.46-.87-.93l-14.75-6.57c-.03.07-.07.13-.12.2-.2.25-.49.38-.79.38-.22 0-.44-.07-.63-.22-.44-.35-.87-.72-1.29-1.09l1-2.61c.58-1.52 2.06-2.54 3.69-2.54.48 0 .95.09 1.4.26.74.28 1.34.76 1.78 1.36.26-.05.53-.08.81-.08.51 0 1.02.09 1.5.28.8.31 1.46.83 1.93 1.48.3-.07.61-.1.92-.1.51 0 1.02.09 1.5.28 1.32.5 2.24 1.6 2.58 2.87.41.03.82.12 1.21.27 2.18.83 3.28 3.28 2.45 5.46L50.59 74.08zM43.76 40.35c.69 0 1.27.01 1.69.03.56.03.99.5.96 1.06-.01.11-.03.22-.07.31L69.13 55.5c.39-.25.91-.2 1.25.14.56.56.84 1.11.97 1.6l-.04.07c-.48.82-1.5 1.17-2.37.81l-18.52-7.67c-.04.05-.07.09-.1.13-1.08 1.33-2.12 2.13-3.74 2.44-1.22 3.53-3.56 7.86-7.78 7.86-1.21 0-2.61-.43-3.59-1.17-.65-.5-.91-1.37-.63-2.14l3.55-10c.07-.2.17-.38.31-.55l5.22-6.53C43.69 40.43 43.72 40.39 43.76 40.35z" style="fill-rule:evenodd;clip-rule:evenodd;fill:#ed9a2d"></path>
      <path d="M38.79,59.98c-1.71,0-2.91-0.89-3.04-0.99c-0.35-0.27-0.48-0.73-0.33-1.14l3.55-10
			c0.04-0.11,0.09-0.2,0.16-0.29l5.22-6.53c1.2-1.39,3.28-2.08,6.21-2.08c3.12,0,6.14,0.78,6.26,0.81c0.23,0.05,0.53,0.08,0.84,0.08
			c2.15,0,4.38-1.34,5.51-2.14c0.4-0.28,0.95-0.23,1.29,0.11l10.27,10.27c0.32,0.32,0.39,0.82,0.16,1.22l-4.36,7.56
			c-0.25,0.44-0.79,0.62-1.26,0.43l-18.79-7.78c-0.17-0.07-0.26-0.08-0.29-0.08c-0.11,0-0.37,0.32-0.58,0.58
			c-0.65,0.8-1.59,1.96-3.72,2.21C43.83,58.61,40.91,59.98,38.79,59.98z" style="fill-rule:evenodd;clip-rule:evenodd;fill:#fada98"></path>
      <g>
        <path d="M34.06,70.21c-0.37,0-0.73-0.07-1.08-0.2c-0.76-0.29-1.36-0.86-1.7-1.61c-0.33-0.75-0.36-1.58-0.07-2.34
				l1.03-2.71c0.45-1.17,1.6-1.96,2.86-1.96c0.37,0,0.74,0.07,1.08,0.2c1.57,0.6,2.37,2.37,1.77,3.94l-1.03,2.71
				C36.47,69.42,35.32,70.21,34.06,70.21z" style="fill-rule:evenodd;clip-rule:evenodd;fill:#fada98"></path>
        <path d="M37.58,73.53L37.58,73.53c-0.41,0-0.8-0.07-1.18-0.22c-0.83-0.32-1.49-0.94-1.85-1.76
				c-0.37-0.82-0.39-1.72-0.08-2.55l1.5-3.92c0.49-1.29,1.75-2.15,3.12-2.15c0.4,0,0.8,0.07,1.18,0.22
				c1.72,0.66,2.59,2.59,1.93,4.31l-1.5,3.92C40.21,72.67,38.96,73.53,37.58,73.53z" style="fill-rule:evenodd;clip-rule:evenodd;fill:#fada98"></path>
        <path d="M41.92,75.19c-0.41,0-0.8-0.07-1.18-0.22c-1.72-0.66-2.59-2.59-1.93-4.31l1.5-3.92
				c0.49-1.28,1.75-2.15,3.12-2.15c0.41,0,0.8,0.07,1.18,0.22c1.72,0.66,2.59,2.59,1.93,4.31l-1.5,3.92
				C44.56,74.33,43.3,75.19,41.92,75.19z" style="fill-rule:evenodd;clip-rule:evenodd;fill:#fada98"></path>
        <path d="M46.27,76.85L46.27,76.85c-0.41,0-0.8-0.07-1.18-0.22c-0.83-0.32-1.49-0.94-1.86-1.76
				c-0.37-0.81-0.39-1.72-0.08-2.55l0.93-2.44c0.49-1.28,1.75-2.15,3.12-2.15c0.41,0,0.8,0.07,1.18,0.22
				c1.72,0.66,2.59,2.59,1.93,4.31L49.4,74.7C48.91,75.98,47.65,76.85,46.27,76.85z" style="fill-rule:evenodd;clip-rule:evenodd;fill:#fada98"></path>
      </g>
      <path d="m31.24 39.06-5.54 20.7c-.07.26-.24.47-.47.61-.11.06-.23.11-.34.11-.05.03-.1.03-.16.03-.09 0-.18-.01-.27-.04l-8.28-2.22c-.27-.07-.48-.24-.62-.47-.13-.23-.17-.5-.1-.76l5.55-20.7c.14-.54.7-.86 1.23-.71l8.29 2.22c.26.07.47.24.61.47C31.28 38.53 31.31 38.81 31.24 39.06zM84.27 44.76l-6.06 6.06c-.07.07-.16.14-.25.18-.14.08-.31.12-.46.12-.28 0-.53-.11-.72-.3L61.64 35.67c-.19-.19-.3-.44-.3-.71 0-.28.11-.53.3-.72l6.07-6.06c.11-.11.23-.18.35-.23.35-.14.79-.06 1.07.23l15.14 15.15C84.67 43.72 84.67 44.36 84.27 44.76z" style="fill-rule:evenodd;clip-rule:evenodd;fill:#f95e7e"></path>
      <path d="M69.15 38.22c-.68 0-1.31-.26-1.79-.74-.98-.99-.98-2.59 0-3.57.48-.48 1.11-.74 1.79-.74.68 0 1.31.26 1.79.74.99.99.99 2.59 0 3.57C70.46 37.96 69.83 38.22 69.15 38.22zM21.97 55.76c-.22 0-.44-.03-.66-.09-.65-.18-1.2-.59-1.53-1.18-.34-.59-.43-1.27-.25-1.92.3-1.1 1.3-1.87 2.44-1.87.22 0 .44.03.66.09 1.35.36 2.15 1.75 1.79 3.09C24.11 54.99 23.11 55.76 21.97 55.76z" style="fill-rule:evenodd;clip-rule:evenodd;fill:#4d6a98"></path>
      <g>
        <path d="M53.52,28.67c0,1.5-0.6,2.85-1.57,3.84c-0.99,1.03-2.4,1.67-3.95,1.67c-3.05,0-5.51-2.46-5.51-5.51
				c0-1.77,0.83-3.35,2.13-4.35c0.14-0.12,0.28-0.22,0.44-0.31c0.04-0.03,0.08-0.06,0.13-0.08c0.05-0.04,0.11-0.07,0.17-0.1
				c0.16-0.09,0.31-0.17,0.48-0.24c0.2-0.08,0.4-0.16,0.61-0.22c0.17-0.05,0.34-0.09,0.52-0.13c0.25-0.05,0.51-0.08,0.77-0.09
				c0.09-0.01,0.18-0.01,0.26-0.01c0.1,0,0.19,0,0.27,0.01c0.26,0.01,0.53,0.04,0.77,0.09c0.18,0.04,0.35,0.08,0.52,0.13
				c0.22,0.07,0.43,0.15,0.64,0.24c0.17,0.07,0.32,0.15,0.48,0.25c0.09,0.04,0.18,0.1,0.26,0.16c0.16,0.09,0.3,0.2,0.44,0.31
				C52.69,25.33,53.52,26.91,53.52,28.67z" style="fill:#fada98"></path>
        <circle cx="48" cy="28.67" r="4.99" style="fill:#ffd06c"></circle>
        <circle cx="48" cy="28.67" r="4.99" style="fill:#ffd06c"></circle>
        <path d="M49.47,32.19c-2.76,0-4.99-2.24-4.99-4.99c0-1,0.3-1.93,0.81-2.71c-1.37,0.89-2.28,2.43-2.28,4.18
				c0,2.76,2.24,4.99,4.99,4.99c1.76,0,3.29-0.91,4.18-2.28C51.4,31.89,50.48,32.19,49.47,32.19z" style="fill:#ed9a2d"></path>
        <path d="M49.67,29.55c0,0.24-0.06,0.45-0.18,0.65c-0.12,0.19-0.31,0.34-0.55,0.45c-0.16,0.07-0.35,0.12-0.56,0.14
				v0.26c0,0.16-0.13,0.29-0.29,0.29c-0.16,0-0.29-0.13-0.29-0.29v-0.25c-0.26-0.03-0.49-0.1-0.68-0.21
				c-0.18-0.11-0.33-0.25-0.44-0.43c-0.11-0.18-0.17-0.35-0.17-0.52c0-0.1,0.04-0.18,0.1-0.25c0.07-0.07,0.16-0.1,0.26-0.1
				c0.09,0,0.16,0.03,0.22,0.08c0.06,0.06,0.11,0.13,0.15,0.24c0.05,0.13,0.11,0.24,0.17,0.32c0.06,0.08,0.14,0.15,0.25,0.21
				c0.04,0.02,0.09,0.04,0.15,0.06c0.08,0.02,0.17,0.03,0.27,0.03c0.11,0,0.22-0.01,0.31-0.04c0.1-0.03,0.19-0.07,0.27-0.13
				c0.15-0.11,0.22-0.25,0.22-0.42c0-0.13-0.04-0.24-0.12-0.32c-0.08-0.08-0.18-0.14-0.31-0.19c-0.02,0-0.04-0.01-0.06-0.02
				c-0.12-0.04-0.26-0.08-0.45-0.12c-0.05-0.01-0.09-0.02-0.13-0.03c-0.23-0.06-0.43-0.12-0.59-0.2c-0.19-0.09-0.34-0.21-0.46-0.37
				c-0.11-0.15-0.17-0.34-0.17-0.57c0-0.22,0.06-0.41,0.18-0.58c0.12-0.17,0.29-0.3,0.51-0.39c0.15-0.06,0.33-0.1,0.52-0.12l0-0.25
				c0-0.16,0.13-0.29,0.29-0.29c0.16,0,0.29,0.13,0.29,0.29v0.26c0.12,0.01,0.24,0.04,0.34,0.07c0.18,0.06,0.32,0.14,0.44,0.24
				c0.12,0.1,0.2,0.21,0.26,0.32c0.06,0.11,0.08,0.22,0.08,0.32c0,0.1-0.04,0.18-0.1,0.26c-0.07,0.08-0.15,0.12-0.25,0.12
				c-0.09,0-0.16-0.02-0.21-0.07c-0.05-0.05-0.1-0.12-0.15-0.23c-0.07-0.15-0.16-0.26-0.26-0.35c-0.04-0.03-0.08-0.06-0.13-0.07
				c-0.09-0.04-0.21-0.06-0.35-0.06c-0.08,0-0.16,0.01-0.23,0.02c-0.11,0.02-0.2,0.06-0.28,0.12c-0.12,0.09-0.19,0.2-0.19,0.33
				c0,0.08,0.02,0.15,0.06,0.21c0.04,0.06,0.1,0.11,0.18,0.15c0.07,0.04,0.15,0.07,0.22,0.09c0,0,0,0,0.01,0
				c0.07,0.02,0.2,0.06,0.38,0.1c0.06,0.01,0.12,0.03,0.18,0.05c0.15,0.04,0.29,0.08,0.42,0.13c0.18,0.06,0.34,0.14,0.46,0.23
				c0.13,0.09,0.23,0.2,0.3,0.34C49.63,29.18,49.67,29.35,49.67,29.55z" style="fill:#fada98"></path>
      </g>
    </g>
    <path d="M71.37,58.44c-0.31,1.46-1.81,2.51-2.91,3.11c0.29,0.65,0.27,1.22,0.16,1.65c-0.35,1.38-1.86,2.3-3.02,2.8
		c0.25,0.61,0.22,1.14,0.12,1.55c-0.39,1.55-2.25,2.51-3.41,2.98c-0.01,0.47-0.18,0.94-0.48,1.35c-1.11,1.51-4.29,2.36-8.33,2.36
		c-1.21,0-2.5-0.08-3.83-0.24l1.76-2.2c0,0,7.21,1.4,8.64,0c1.44-1.39,1.73-2.15,1.73-2.33c0-0.17,3-1.56,3.05-3.96
		c0.04-2.41,3.59-1.1,3-4.32c-0.59-3.2,2.37-0.68,1.72-2.94c-0.35-1.27,0.68-1.46,1.65-1.39C71.47,57.47,71.46,58.02,71.37,58.44z" style="fill-rule:evenodd;clip-rule:evenodd;fill:#ed9a2d"></path>
  </g>
</svg>
