<svg xmlns="http://www.w3.org/2000/svg" viewBox="0 0 200 200" id="japan-flag">
  <path fill="#6f4e5a" d="M122.82,159.13v5.75c0,6-3.95,12-11.86,16.53-15.82,9.13-41.46,9.13-57.28,0-7.91-4.57-11.86-10.55-11.86-16.53s0-5.75,0-5.75Z"></path>
  <ellipse cx="82.32" cy="159.13" fill="#896e76" rx="40.5" ry="23.38"></ellipse>
  <path fill="#4a2730" d="M107.07,157.88v3.48c0,3.62-2.39,7.24-7.18,10-9.56,5.52-25.08,5.52-34.64,0-4.79-2.77-7.18-6.39-7.18-10s0-3.48,0-3.48Z"></path>
  <ellipse cx="82.57" cy="156.88" fill="#613e4a" rx="24.5" ry="14.15"></ellipse>
  <path fill="#4a2730" d="M87,14.27V155.92a2.17,2.17,0,0,1-1.29,1.79,6.8,6.8,0,0,1-6.18,0,2.16,2.16,0,0,1-1.28-1.79V14.27Z"></path>
  <path fill="#613e4a" d="M85.66,12.48c1.71,1,1.71,2.59,0,3.57a6.8,6.8,0,0,1-6.18,0c-1.71-1-1.71-2.58,0-3.57A6.86,6.86,0,0,1,85.66,12.48Z"></path>
  <path fill="#e2e6ea" d="M158.18,70.85h-3.69c.07-14.91-16.75-19.15-34.56-23.64C102,42.67,83.38,38,83.38,22c0,0,2.63-.21,3.54-1,0,0,.16,1.67.18,2,.75,13.83,17.06,17.94,34.31,22.29C139.52,49.82,158.25,54.54,158.18,70.85Z"></path>
  <path fill="#cad1d7" d="M83.38,78.09c0,16,18.58,20.72,36.55,25.25,17.81,4.49,34.63,8.73,34.56,23.64V70.85c.07-14.91-16.75-19.15-34.56-23.64C102,42.68,83.38,38,83.38,22Z"></path>
  <rect width="3.69" height="56.13" x="154.49" y="70.84" fill="#b1bbc4"></rect>
  <ellipse cx="120.78" cy="75.38" fill="#f62121" rx="15.57" ry="20.73" transform="rotate(-30.23 120.76 75.38)"></ellipse>
</svg>
