<svg xmlns="http://www.w3.org/2000/svg" width="24" height="24" fill="none" viewBox="0 0 24 24" id="pen-tool">
  <path fill="#000" fill-rule="evenodd" d="M12.7235 2.99773C13.7412 1.98001 15.3912 1.98001 16.409 2.99773L21.0024 7.59118C22.0201 8.6089 22.0201 10.2589 21.0024 11.2767C19.9847 12.2944 18.3347 12.2944 17.3169 11.2767L12.7235 6.68322C11.7058 5.6655 11.7058 4.01545 12.7235 2.99773ZM15.3483 4.05839C14.9164 3.62645 14.2161 3.62645 13.7841 4.05839C13.3522 4.49032 13.3522 5.19062 13.7841 5.62256L18.3776 10.216C18.8095 10.6479 19.5098 10.6479 19.9418 10.216C20.3737 9.78408 20.3737 9.08377 19.9418 8.65184L15.3483 4.05839Z" clip-rule="evenodd"></path>
  <path fill="#000" d="M13.027 7.0951C13.2083 7.01307 13.3506 6.94438 13.4491 6.89536L12.4087 5.72845C12.0817 5.87638 11.6049 6.07649 11.0151 6.28026C9.83137 6.68926 8.21438 7.10534 6.45186 7.15619C5.01554 7.19763 3.59019 8.19531 3.39798 9.77142L2.26812 19.0363C2.07776 20.5971 3.40306 21.9222 4.96384 21.7319L14.2286 20.602C15.8047 20.4098 16.8023 18.9844 16.8438 17.5481C16.8946 15.7856 17.3107 14.1686 17.7197 12.9848C17.9235 12.395 18.1236 11.9182 18.2715 11.5913L17.1046 10.5509C17.0556 10.6494 16.9869 10.7917 16.9049 10.973C16.7409 11.3354 16.523 11.8553 16.3019 12.495C15.8614 13.7702 15.401 15.5432 15.3444 17.5049C15.3199 18.3555 14.742 19.0283 14.047 19.113L4.78225 20.2429C4.18865 20.3153 3.68471 19.8113 3.75708 19.2178L4.88695 9.953C4.97171 9.25796 5.64442 8.68011 6.49512 8.65557C8.45675 8.59897 10.2298 8.13861 11.505 7.69803C12.1447 7.47701 12.6646 7.25905 13.027 7.0951Z"></path>
  <path fill="#000" fill-rule="evenodd" d="M8.86226 15.1376C9.15515 15.4305 9.15516 15.9054 8.86226 16.1983L4.072 20.9886C3.77911 21.2815 3.30423 21.2815 3.01134 20.9886C2.71844 20.6957 2.71844 20.2209 3.01133 19.928L7.8016 15.1376C8.09449 14.8447 8.56936 14.8447 8.86226 15.1376Z" clip-rule="evenodd"></path>
  <path fill="#000" fill-rule="evenodd" d="M10.7549 13.2454C10.2324 12.7229 9.38515 12.7229 8.86261 13.2454C8.34008 13.768 8.34008 14.6152 8.86261 15.1377C9.38515 15.6602 10.2324 15.6602 10.7549 15.1377C11.2774 14.6152 11.2774 13.768 10.7549 13.2454ZM7.80195 12.1848C8.91028 11.0764 10.7072 11.0764 11.8155 12.1848C12.9239 13.2931 12.9239 15.09 11.8155 16.1984C10.7072 17.3067 8.91028 17.3067 7.80195 16.1984C6.69363 15.09 6.69363 13.2931 7.80195 12.1848Z" clip-rule="evenodd"></path>
</svg>
