<svg xmlns="http://www.w3.org/2000/svg" xml:space="preserve" id="sparkle" x="0" y="0" style="enable-background:new 0 0 64 64" version="1.1" viewBox="0 0 64 64">
  <g>
    <g>
      <linearGradient id="SVGID_1_" x1="43.867" x2="43.867" y1="12.036" y2="51.586" gradientUnits="userSpaceOnUse">
        <stop offset="0" style="stop-color:#b97efc"></stop>
        <stop offset=".368" style="stop-color:#984de9"></stop>
        <stop offset="1" style="stop-color:#2a88bc"></stop>
      </linearGradient>
      <path d="M51,17c0-0.1-0.1-0.2-0.1-0.3c-0.1-0.2-0.3-0.4-0.6-0.4c-0.5-0.1-1-0.3-1.5-0.5c-0.4-0.2-0.8-0.4-1.2-0.7
			c-0.4-0.3-0.7-0.6-1-0.9c-0.4-0.6-0.7-1.2-1-1.8c-0.3-0.8-0.6-1.6-0.9-2.4c-0.1-0.4-0.5-0.7-0.9-0.7c-0.4,0-0.8,0.3-0.9,0.7
			c-0.3,0.8-0.5,1.6-0.9,2.4c-0.3,0.6-0.6,1.2-1,1.8c-0.3,0.3-0.6,0.7-0.9,0.9c-0.4,0.3-0.8,0.5-1.2,0.7c-0.5,0.2-1,0.3-1.5,0.5
			c-0.2,0-0.4,0.2-0.5,0.3c-0.1,0.2-0.2,0.4-0.2,0.6c0,0.4,0.3,0.8,0.7,0.9c0.5,0.1,1,0.3,1.4,0.4c0.4,0.2,0.8,0.4,1.2,0.7
			c0.4,0.3,0.7,0.6,1,1c0.4,0.6,0.8,1.2,1,1.8c0.4,0.9,0.6,1.8,0.9,2.7c0.1,0.4,0.5,0.7,0.9,0.7c0.4,0,0.8-0.3,0.9-0.7
			c0.3-0.9,0.6-1.8,0.9-2.7c0.3-0.6,0.6-1.3,1-1.8c0.3-0.4,0.6-0.7,1-1c0.4-0.3,0.8-0.5,1.2-0.7c0.5-0.2,0.9-0.3,1.4-0.4
			c0.2,0,0.4-0.2,0.5-0.3c0.1-0.1,0.1-0.2,0.2-0.3c0,0,0,0,0,0C51,17.2,51,17.1,51,17z" style="fill:url(#SVGID_1_)"></path>
      <linearGradient id="SVGID_2_" x1="35.275" x2="35.275" y1="12.036" y2="51.586" gradientUnits="userSpaceOnUse">
        <stop offset="0" style="stop-color:#b97efc"></stop>
        <stop offset=".368" style="stop-color:#984de9"></stop>
        <stop offset="1" style="stop-color:#2a88bc"></stop>
      </linearGradient>
      <path d="M35.3,42.4C35.3,42.4,35.3,42.4,35.3,42.4L35.3,42.4C35.3,42.4,35.3,42.4,35.3,42.4z" style="fill:url(#SVGID_2_)"></path>
      <linearGradient id="SVGID_3_" x1="29.234" x2="29.234" y1="12.036" y2="51.586" gradientUnits="userSpaceOnUse">
        <stop offset="0" style="stop-color:#b97efc"></stop>
        <stop offset=".368" style="stop-color:#984de9"></stop>
        <stop offset="1" style="stop-color:#2a88bc"></stop>
      </linearGradient>
      <path d="M45.3,35.4C45.2,35.2,45,35,44.8,35c-0.9-0.2-1.9-0.4-2.8-0.8c-0.2-0.1-0.4-0.2-0.6-0.2
			c-0.1,0-0.2-0.1-0.3-0.1c0,0-0.1,0-0.2-0.1c0,0,0,0,0,0c-0.4-0.2-0.7-0.3-1.1-0.5c-0.7-0.4-1.4-0.8-2-1.2
			c-0.1-0.1-0.2-0.1-0.2-0.2c0,0,0,0-0.1-0.1c-0.2-0.1-0.3-0.2-0.4-0.4c-0.3-0.2-0.5-0.5-0.8-0.7c-0.3-0.3-0.5-0.5-0.7-0.8
			c-0.1-0.1-0.2-0.3-0.4-0.4c-0.1-0.1-0.1-0.1-0.2-0.2c0,0,0,0,0,0c0,0,0,0,0,0c-0.4-0.6-0.8-1.2-1.2-1.8c-0.4-0.6-0.7-1.3-1-2
			c-0.1-0.3-0.3-0.6-0.4-1c0,0-0.1-0.1-0.1-0.2c0-0.1-0.1-0.2-0.1-0.3c-0.1-0.2-0.1-0.4-0.2-0.6c-0.6-1.5-1.1-3.1-1.6-4.6
			c-0.1-0.2-0.1-0.4-0.2-0.6c-0.1-0.4-0.5-0.7-0.9-0.7c-0.4,0-0.8,0.3-0.9,0.7c-0.5,1.6-1,3.2-1.6,4.7c-0.1,0.4-0.3,0.7-0.4,1.1
			c0,0.1-0.1,0.2-0.1,0.3c0,0,0,0.1,0,0.1v0c0,0,0,0,0,0c0,0,0,0,0,0v0c0,0,0,0,0,0v0c0,0,0,0,0,0c0,0,0,0,0,0
			c0,0.1-0.1,0.3-0.2,0.4c-0.3,0.7-0.6,1.4-1,2c-0.4,0.6-0.7,1.3-1.1,1.8c-0.1,0.1-0.2,0.3-0.3,0.4c0,0,0,0,0,0.1c0,0,0,0-0.1,0.1
			c0,0.1-0.1,0.1-0.1,0.2c-0.2,0.3-0.5,0.5-0.7,0.8c-0.5,0.5-1,1-1.6,1.5c0,0,0,0-0.1,0c-0.1,0.1-0.2,0.1-0.2,0.2
			c-0.2,0.1-0.3,0.2-0.5,0.3c-0.3,0.2-0.7,0.4-1,0.6c-0.3,0.2-0.7,0.4-1.1,0.6c-0.2,0.1-0.4,0.2-0.5,0.2c0,0-0.1,0-0.2,0.1
			c-0.1,0-0.2,0.1-0.3,0.1c-0.9,0.3-1.8,0.6-2.7,0.8c-0.3,0.1-0.5,0.1-0.7,0.2c-0.4,0.1-0.7,0.5-0.7,0.9c0,0.4,0.3,0.8,0.7,0.9
			c0.9,0.2,1.9,0.5,2.8,0.8c0.2,0.1,0.4,0.2,0.6,0.3c0,0,0.1,0,0.2,0.1c0,0,0,0,0,0c0,0,0,0,0,0c0.1,0,0.1,0,0.2,0.1
			c0.4,0.2,0.8,0.3,1.1,0.5c0.7,0.4,1.4,0.8,2,1.3c0,0,0.1,0,0.1,0.1c0.1,0.1,0.2,0.1,0.2,0.2c0.1,0.1,0.3,0.3,0.4,0.4
			c0.3,0.3,0.5,0.5,0.8,0.8c0.3,0.3,0.5,0.5,0.7,0.8c0.1,0.1,0.1,0.1,0.2,0.2c0,0,0.1,0.1,0.1,0.1c0.1,0.1,0.2,0.3,0.3,0.4
			c0.4,0.6,0.8,1.3,1.2,1.9c0.4,0.7,0.7,1.3,1,2c0.1,0.2,0.2,0.4,0.2,0.5c0,0,0,0,0,0c0,0,0,0,0,0c0,0.1,0.1,0.2,0.1,0.3
			c0.1,0.4,0.3,0.8,0.4,1.1c0.6,1.5,1.1,3.1,1.6,4.7c0.1,0.2,0.1,0.4,0.2,0.6c0.1,0.4,0.5,0.7,0.9,0.7c0.4,0,0.8-0.3,0.9-0.7
			c0.5-1.6,1-3.2,1.6-4.8c0.1-0.4,0.3-0.8,0.4-1.1c0.1-0.2,0.1-0.4,0.2-0.6c0-0.1,0.1-0.2,0.1-0.3c0,0,0,0,0-0.1l0,0c0,0,0,0,0,0
			s0,0,0,0c0.3-0.7,0.6-1.4,1-2c0.3-0.7,0.7-1.3,1.1-1.9c0.1-0.2,0.2-0.3,0.3-0.5c0,0,0.2-0.3,0.3-0.4c0,0,0-0.1,0-0.1v0
			c0,0,0,0,0-0.1c0.1-0.1,0.1-0.1,0.2-0.2c0.1-0.1,0.2-0.3,0.4-0.4c0.5-0.6,1-1.1,1.6-1.6c0.1-0.1,0.1-0.1,0.2-0.2
			c0,0,0.1,0,0.1-0.1c0.2-0.1,0.3-0.2,0.4-0.3c0.3-0.2,0.7-0.5,1-0.7c0.3-0.2,0.7-0.4,1.1-0.6c0.2-0.1,0.4-0.2,0.6-0.3
			c0.1,0,0.1,0,0.2-0.1h0c0,0,0.1,0,0.1,0c0,0,0,0,0,0c0,0,0.1,0,0.1,0c0.9-0.4,1.8-0.6,2.7-0.9c0.3-0.1,0.5-0.1,0.7-0.2
			c0.2,0,0.3-0.1,0.4-0.2c0.1-0.1,0.2-0.3,0.3-0.4c0,0,0,0,0,0c0-0.2,0-0.3,0-0.5C45.4,35.6,45.4,35.5,45.3,35.4z" style="fill:url(#SVGID_3_)"></path>
    </g>
  </g>
</svg>
