<svg xmlns="http://www.w3.org/2000/svg" viewBox="0 0 53 53" id="squat-rack">
  <path fill="#e3e7f0" d="m5.478 39.593 1.26-.732 14.4 8.314-1.26.732c-5.676-2.993-10.988-5.893-14.4-8.314z"></path>
  <path fill="#c9cee2" d="m5.534 19.906 1.26-.732-.056 19.687-1.26.732c-.275-7.021-.314-13.674.056-19.687z"></path>
  <path fill="#d9d8eb" d="m19.081 41.911 1.26-.732 2.767 8.591-1.259.732z"></path>
  <path fill="#c9cee2" d="m14.04 26.22 1.259-.732 5.042 15.691-1.26.732z"></path>
  <path fill="#4c5c75" d="m18.947 38.842 1.26-.732 1 3.112-1.26.732c-.377-.725-.692-1.89-1-3.112z"></path>
  <path fill="#414f65" d="m18.789 38.347 1.259-.732.942.543-1.26.732z"></path>
  <path fill="#1d2943" d="m19.73 38.89 1.26-.732-.002.404-1.259.732z"></path>
  <path fill="#4c5c75" d="m17.4 34.033 1.26-.732 1.388 4.314-1.26.732c-.84-1.694-1.77-3.45-1.387-4.314z"></path>
  <path fill="#1d2943" d="m18.241 34.117 1.259-.732-.001.4-1.26.732z"></path>
  <path fill="#4c5c75" d="m15.854 29.223 1.26-.732 1.388 4.317c.188 1.137-.417 1.11-1.26.732-.616-.874-1.02-2.528-1.388-4.317z"></path>
  <path fill="#1d2943" d="m14.037 26.22 1.26-.732.865.043-1.171 1.124z"></path>
  <path fill="#4c5c75" d="m14.903 26.263 1.259-.732.793 2.468-1.259.732z"></path>
  <path fill="#111d33" d="m14.903 26.263.793 2.468 1.055.609-.001.4-.896-.517 1.388 4.317.999.577-.002.4-.838-.484 1.388 4.314.941.543-.001.404-.782-.452 1 3.112-.861-.043-5.049-15.691z"></path>
  <path fill="#414f65" d="m15.696 28.731 1.259-.732 1.056.609-1.26.732z"></path>
  <path fill="#1d2943" d="m16.751 29.34 1.26-.732-.001.4-1.26.732z"></path>
  <path fill="#e3e7f0" d="m4.272 17.719 1.259-.732 8.638 4.987-1.259.732z"></path>
  <path fill="#b0b8cf" d="m19.081 41.91 2.768 8.592L4.208 40.317l.064-22.598 8.638 4.987 1.13 3.514 5.041 15.69zM5.534 19.907l-.056 19.687 14.4 8.314-7.785-24.215-6.559-3.786"></path>
  <path fill="#c9cee2" d="m12.91 22.706 1.259-.732 1.13 3.514-1.259.732z"></path>
  <path fill="#e3e7f0" d="m28.08 26.557 1.26-.732 14.4 8.314-1.26.732c-3.628-1.717-8.832-4.851-14.4-8.314z"></path>
  <path fill="#c9cee2" d="m28.135 6.87 1.26-.733-.056 19.688-1.26.732c-.793-3.513-.3-11.857.056-19.688z"></path>
  <path fill="#d9d8eb" d="m41.682 28.875 1.26-.732 2.767 8.59-1.26.733c-1.24-3.367-2.422-6.644-2.767-8.591z"></path>
  <path fill="#c9cee2" d="m36.641 13.184 1.259-.732 5.042 15.691-1.26.732z"></path>
  <path fill="#4c5c75" d="m41.548 25.806 1.26-.732 1 3.112-1.26.732c-.552-.8-.818-1.91-1-3.112z"></path>
  <path fill="#1d2943" d="m42.331 25.854 1.26-.732-.002.403-1.259.732z"></path>
  <path fill="#4c5c75" d="m40.002 20.996 1.26-.732 1.387 4.315c-.165.45-.687.61-1.26.732a18.555 18.555 0 0 1-1.387-4.315z"></path>
  <path fill="#1d2943" d="m40.842 21.081 1.259-.732-.001.4-1.26.732z"></path>
  <path fill="#4c5c75" d="m38.455 16.187 1.26-.732 1.388 4.317c-.153.624-.685.708-1.26.732-.634-.921-1.017-2.601-1.388-4.317z"></path>
  <path fill="#1d2943" d="m36.638 13.184 1.26-.732.865.043-1.129 1.389z"></path>
  <path fill="#4c5c75" d="m37.504 13.227 1.259-.732.793 2.467-1.259.732z"></path>
  <path fill="#111d33" d="m37.504 13.227.793 2.467 1.055.61-.001.4-.896-.517 1.388 4.317.999.577-.002.4-.838-.485 1.388 4.315.941.543-.001.403-.782-.451 1 3.112-.861-.043-5.049-15.691z"></path>
  <path fill="#414f65" d="m38.297 15.694 1.259-.732 1.056.61-1.26.732z"></path>
  <path fill="#1d2943" d="m39.352 16.304 1.26-.732-.001.4-1.26.732z"></path>
  <path fill="#e3e7f0" d="m26.873 4.683 1.259-.732 8.638 4.987-1.259.732z"></path>
  <path fill="#b0b8cf" d="m41.682 28.875 2.768 8.59-17.641-10.184.064-22.598L35.51 9.67l1.13 3.514 5.041 15.69zM28.135 6.869l-.056 19.688 14.4 8.314-7.785-24.215-6.559-3.787"></path>
  <path fill="#c9cee2" d="m35.51 9.67 1.26-.732 1.13 3.514-1.26.732c-.589-1.044-.97-2.213-1.13-3.514z"></path>
  <path fill="#c9cee2" d="M36.764 7.488v1.46l-23.86 13.76-8.63-4.99v-1.46l23.86-13.76z"></path>
  <path fill="#c9cee2" d="m36.769 7.487-.002 1.458-23.858 13.789.002-1.489z"></path>
  <path fill="#b0b8cf" d="m12.911 21.245-.002 1.489-8.638-4.708.002-1.766z"></path>
  <path fill="#e3e7f0" d="M36.769 7.487 12.911 21.245 4.273 16.26 28.131 2.502z"></path>
  <path fill="#f3f1fc" d="M45.191 10.365c-.146-.084-.278-.092-.374-.036L12.06 29.233c.096-.056.229-.048.375.036.292.17.528.578.527.911 0 .167-.059.285-.154.34l32.757-18.904c.095-.055.154-.173.154-.34.001-.334-.235-.742-.528-.911z"></path>
  <path fill="#cc104a" d="M42.704 13.265c.071.041.14.07.205.085l-.89.518a.792.792 0 0 1-.205-.086l.89-.517z"></path>
  <path fill="#cc104a" d="m43.224 13.322-.89.517a.433.433 0 0 1-.315.029l.89-.518c.12.03.228.019.315-.028zm-1.047-.617-.89.517a1.505 1.505 0 0 1-.212-.723c0-.233.083-.397.216-.475l.89-.517c-.133.078-.215.242-.216.475 0 .233.08.492.212.723z"></path>
  <path fill="#f45170" d="M42.948 9.34c-.71-.41-1.353-.449-1.818-.178l-1.123.65c.465-.27 1.076-.181 1.786.229 1.411.814 2.538 2.736 2.533 4.357-.002.807-.24 1.38-.7 1.647l1.123-.652c.46-.266.744-.834.746-1.641.005-1.622-1.136-3.598-2.547-4.413z"></path>
  <path fill="#cc104a" d="M41.825 9.99c1.411.815 2.552 2.791 2.548 4.413-.005 1.624-1.154 2.278-2.565 1.464-1.41-.815-2.551-2.791-2.547-4.415.005-1.622 1.153-2.276 2.564-1.462zm-.015 5.438c1.201.694 2.18.136 2.184-1.244.004-1.377-.969-3.062-2.17-3.755-1.201-.694-2.177-.134-2.181 1.243-.004 1.38.965 3.063 2.167 3.756"></path>
  <path fill="#f45170" d="M41.824 10.429c1.201.693 2.174 2.378 2.17 3.755-.004 1.38-.983 1.938-2.184 1.244-1.202-.693-2.171-2.376-2.167-3.756.004-1.377.98-1.937 2.18-1.243zm-.01 3.353c.409.236.746.047.747-.425.002-.47-.333-1.046-.742-1.282-.408-.236-.743-.046-.744.424-.001.472.33 1.048.74 1.283M11.656 27.807c-.004 1.38.966 3.063 2.167 3.757l-.89.517c-1.201-.694-2.17-2.376-2.167-3.757l.89-.517z"></path>
  <path fill="#cc104a" d="m13.31 29.374-.89.517a1.917 1.917 0 0 1-.01-.017l.89-.517.01.017z"></path>
  <path fill="#cc104a" d="M13.31 29.374c.133.228.316.427.518.544l-.89.517a1.507 1.507 0 0 1-.518-.544l.89-.517z"></path>
  <path fill="#cc104a" d="M13.828 29.918c.07.04.14.069.205.085l-.89.517a.792.792 0 0 1-.205-.085l.89-.517zM14.348 29.974l-.89.517a.433.433 0 0 1-.315.029l.89-.517c.12.03.227.018.315-.03zm-1.048-.617-.89.517a1.505 1.505 0 0 1-.211-.723c0-.232.083-.397.216-.474l.89-.517c-.133.077-.216.241-.216.474-.001.234.08.493.211.723z"></path>
  <path fill="#cc104a" d="m13.305 28.16-.89.517.89-.518z"></path>
  <path fill="#f45170" d="M13.823 31.564c.605.349 1.153.38 1.549.15l-.89.518c-.396.23-.944.198-1.549-.151l.89-.517zm-1.532-5.151c-.39.227-.633.71-.635 1.394l-.89.517c.002-.684.244-1.167.635-1.394l.89-.517z"></path>
  <path fill="#cc104a" d="M14.348 29.974a.36.36 0 0 0 .01-.005l-.89.517a.365.365 0 0 1-.01.005c.296-.172.59-.35.89-.517z"></path>
  <path fill="#f3f1fc" d="m42.563 13.353-.748.433-29.008 16.731c.096-.05.154-.168.154-.337 0-.33-.235-.74-.528-.91-.147-.088-.279-.095-.374-.036l29.015-16.732.741-.433c0 .008.008.008.008.008.403.235.74.807.74 1.276z"></path>
  <path fill="#cc104a" d="m15.372 31.715-.89.517c.39-.227.633-.71.635-1.396.004-1.377-.968-3.061-2.17-3.755l.89-.517c1.202.694 2.407 2.244 2.403 3.621-.002.686-.477 1.303-.868 1.53zM11.4 26.93l.89-.517c.395-.23.942-.198 1.546.151l-.89.517c-.604-.349-1.15-.38-1.546-.15z"></path>
  <path fill="#f45170" d="M14.072 25.992c-.71-.41-1.354-.448-1.819-.178l-1.123.651c.465-.27 1.1-.148 1.81.262 1.411.814 2.506 2.728 2.501 4.35-.002.807-.232 1.353-.691 1.62l1.123-.651c.459-.267.744-.835.746-1.642.005-1.621-1.137-3.598-2.547-4.412z"></path>
  <path fill="#cc104a" d="M12.949 26.643c1.41.814 2.552 2.79 2.547 4.412-.005 1.624-1.153 2.279-2.564 1.464-1.41-.814-2.552-2.79-2.547-4.415.004-1.621 1.153-2.276 2.564-1.461zm-.016 5.438c1.202.693 2.18.136 2.184-1.245.004-1.377-.968-3.061-2.17-3.755-1.2-.693-2.177-.134-2.18 1.243-.005 1.38.965 3.063 2.166 3.757"></path>
  <path fill="#f45170" d="M12.947 27.081c1.202.694 2.174 2.378 2.17 3.755-.004 1.38-.982 1.938-2.184 1.245-1.201-.694-2.17-2.376-2.167-3.757.004-1.377.98-1.936 2.181-1.243zm-.009 3.354c.408.236.745.047.747-.426.001-.47-.334-1.046-.742-1.282-.409-.236-.743-.045-.744.424-.002.473.33 1.048.739 1.284"></path>
  <path fill="#f3f1fc" d="m12.917 28.735-.857.498c.096-.056.229-.048.375.036l.482-.28v-.254z"></path>
  <path fill="#f3f1fc" d="m13.3 30.236-.548-1.405-.693.403c.095-.059.09.239.236.327.293.169.385.328.385.658 0 .169.223.247.127.298l.494-.281z"></path>
  <path fill="#fff" d="M12.435 29.27c.293.168.528.577.527.91 0 .337-.238.472-.53.303-.291-.168-.527-.576-.526-.913.001-.333.238-.468.529-.3z"></path>
  <path fill="#f3f1fc" d="M48.265 19.783c-.146-.084-.28-.092-.375-.036L15.133 38.651c.096-.055.229-.048.375.037.293.169.528.577.527.91 0 .168-.059.285-.154.34l32.757-18.904c.095-.055.154-.173.154-.34.001-.333-.234-.741-.527-.91z"></path>
  <path fill="#cc104a" d="M45.778 22.684c.07.04.14.069.204.085l-.89.517a.792.792 0 0 1-.204-.085l.89-.517z"></path>
  <path fill="#cc104a" d="m46.297 22.74-.89.517a.433.433 0 0 1-.315.03l.89-.518c.12.03.228.018.315-.029zm-1.047-.617-.89.517a1.505 1.505 0 0 1-.212-.723c0-.232.083-.396.216-.474l.89-.517c-.133.077-.215.241-.216.474 0 .234.08.493.212.723z"></path>
  <path fill="#f45170" d="M46.021 18.758c-.71-.41-1.353-.448-1.818-.178l-1.123.651c.465-.27 1.077-.182 1.786.228 1.411.815 2.538 2.736 2.533 4.357-.002.808-.24 1.38-.7 1.647l1.123-.651c.46-.267.744-.835.747-1.642.004-1.621-1.137-3.598-2.548-4.412z"></path>
  <path fill="#cc104a" d="M44.898 19.409c1.411.814 2.552 2.79 2.548 4.412-.005 1.624-1.153 2.279-2.564 1.464-1.411-.814-2.552-2.79-2.548-4.415.005-1.621 1.153-2.276 2.564-1.461zm-.015 5.438c1.201.693 2.18.136 2.184-1.245.004-1.377-.969-3.061-2.17-3.755-1.201-.693-2.177-.134-2.181 1.243-.004 1.38.966 3.063 2.167 3.757"></path>
  <path fill="#f45170" d="M44.897 19.847c1.201.694 2.174 2.378 2.17 3.755-.004 1.38-.983 1.938-2.184 1.245-1.201-.694-2.171-2.376-2.167-3.757.004-1.377.98-1.936 2.181-1.243zm-.01 3.354c.41.236.746.047.747-.426.002-.469-.333-1.046-.742-1.282-.408-.236-.742-.045-.744.424-.001.473.331 1.048.74 1.284M14.73 37.226c-.004 1.38.965 3.063 2.166 3.756l-.89.517c-1.2-.693-2.17-2.376-2.167-3.756l.89-.517z"></path>
  <path fill="#cc104a" d="m16.383 38.792-.89.518a1.946 1.946 0 0 1-.01-.017l.89-.517.01.016z"></path>
  <path fill="#cc104a" d="M16.383 38.792c.134.229.317.428.518.544l-.89.517a1.507 1.507 0 0 1-.518-.543l.89-.518z"></path>
  <path fill="#cc104a" d="M16.901 39.336c.071.041.14.07.205.085l-.89.518a.792.792 0 0 1-.205-.086l.89-.517zM17.421 39.392l-.89.518a.433.433 0 0 1-.315.029l.89-.518c.12.03.228.019.315-.029zm-1.047-.616-.89.517a1.505 1.505 0 0 1-.212-.723c0-.233.083-.397.216-.475l.89-.517c-.133.078-.216.242-.216.475 0 .233.08.492.212.723zM16.378 37.578l-.89.517.89-.517z"></path>
  <path fill="#f45170" d="M16.896 40.982c.605.35 1.153.381 1.549.151l-.89.517c-.396.23-.944.198-1.549-.15l.89-.518zm-1.532-5.15c-.39.226-.633.709-.635 1.394l-.89.517c.002-.685.245-1.167.635-1.394l.89-.518z"></path>
  <path fill="#cc104a" d="M17.421 39.392a.357.357 0 0 0 .01-.005l-.89.517a.38.38 0 0 1-.01.006c.297-.173.59-.35.89-.518z"></path>
  <path fill="#f3f1fc" d="m45.637 22.772-.749.432L15.88 39.936c.096-.051.154-.169.154-.338 0-.33-.234-.74-.528-.91-.146-.087-.278-.094-.374-.036l29.015-16.731.741-.433c0 .007.008.007.008.007.403.235.74.807.74 1.277z"></path>
  <path fill="#cc104a" d="m18.445 41.133-.89.517c.39-.227.633-.71.635-1.395.004-1.378-.968-3.062-2.17-3.755l.89-.517c1.202.693 2.407 2.243 2.403 3.62-.002.686-.477 1.303-.868 1.53zm-3.97-4.784.89-.517c.394-.23.941-.198 1.546.15l-.89.518c-.605-.349-1.152-.381-1.547-.151z"></path>
  <path fill="#f45170" d="M17.145 35.41c-.71-.41-1.354-.448-1.819-.178l-1.122.652c.464-.27 1.1-.149 1.81.261 1.41.815 2.505 2.729 2.5 4.35-.002.807-.232 1.354-.691 1.62l1.123-.65c.459-.268.744-.835.746-1.643.005-1.62-1.136-3.597-2.547-4.412z"></path>
  <path fill="#cc104a" d="M16.022 36.061c1.41.815 2.552 2.791 2.547 4.413-.004 1.624-1.153 2.278-2.564 1.464-1.41-.815-2.552-2.791-2.547-4.416.004-1.62 1.153-2.275 2.564-1.46zm-.016 5.438c1.202.694 2.18.136 2.184-1.244.004-1.378-.968-3.062-2.17-3.755-1.2-.694-2.177-.135-2.18 1.243-.004 1.38.965 3.063 2.166 3.756"></path>
  <path fill="#f45170" d="M16.02 36.5c1.202.693 2.174 2.377 2.17 3.755-.004 1.38-.982 1.938-2.184 1.244-1.2-.693-2.17-2.376-2.167-3.756.004-1.378.98-1.937 2.182-1.243zm-.009 3.353c.409.236.746.047.747-.425.001-.47-.334-1.046-.742-1.282-.409-.236-.743-.046-.744.424-.002.472.33 1.048.74 1.283"></path>
  <path fill="#f3f1fc" d="m15.99 38.153-.857.498c.096-.055.229-.048.375.037l.482-.28v-.255z"></path>
  <path fill="#f3f1fc" d="m16.374 39.654-.55-1.404-.692.402c.096-.058.09.24.236.328.293.168.385.327.385.657 0 .169.223.248.127.299l.494-.282z"></path>
  <path fill="#fff" d="M15.508 38.688c.293.169.528.577.527.91 0 .337-.238.472-.53.303-.29-.167-.527-.576-.526-.912.001-.334.239-.469.529-.301z"></path>
  <path fill="#414f65" d="m17.242 33.54 1.26-.732.998.577-1.259.732z"></path>
  <path fill="#fff" d="M11.242 18.873v.009a2.207 2.207 0 0 0-2.206 2.205 2.206 2.206 0 0 0-2.206-2.205v-.009a2.206 2.206 0 0 0 2.206-2.206c0 .607.246 1.165.648 1.559.402.401.951.647 1.558.647z"></path>
  <path fill="#414f65" d="m39.843 20.504 1.26-.732.998.577-1.259.732zM41.39 25.311l1.259-.732.942.543-1.26.732z"></path>
</svg>
